<svg xmlns="http://www.w3.org/2000/svg" width="256" height="256" viewBox="0 0 256 256" role="img" aria-label="Universo da Limpeza">
  <defs>
    <linearGradient id="g" x1="0" y1="0" x2="1" y2="1">
      <stop offset="0" stop-color="#ff2d2d"/>
      <stop offset="1" stop-color="#246bff"/>
    </linearGradient>
  </defs>
  <rect x="16" y="16" width="224" height="224" rx="72" fill="url(#g)"/>
  <path d="M128 52 56 108v90c0 10 8 18 18 18h108c10 0 18-8 18-18v-90L128 52z" fill="rgba(11,16,32,0.78)"/>
  <path d="M128 70 72 114v78c0 6 4 10 10 10h92c6 0 10-4 10-10v-78L128 70z" fill="rgba(245,247,255,0.12)"/>
  <path d="M106 166c10 16 34 16 44 0" fill="none" stroke="rgba(245,247,255,0.9)" stroke-width="10" stroke-linecap="round"/>
  <circle cx="178" cy="120" r="5" fill="rgba(245,247,255,0.95)"/>
  <circle cx="188" cy="130" r="3" fill="rgba(245,247,255,0.9)"/>
  <circle cx="168" cy="134" r="3" fill="rgba(245,247,255,0.9)"/>
</svg>
